<!DOCTYPE svg PUBLIC "-//W3C//DTD SVG 1.1//EN" "http://www.w3.org/Graphics/SVG/1.1/DTD/svg11.dtd">
<!-- Uploaded to: SVG Repo, www.svgrepo.com, Transformed by: SVG Repo Mixer Tools -->
<svg height="800px" width="800px" version="1.1" id="Layer_1" xmlns="http://www.w3.org/2000/svg" xmlns:xlink="http://www.w3.org/1999/xlink" viewBox="0 0 478.512 478.512" xml:space="preserve" fill="#000000">
<g id="SVGRepo_bgCarrier" stroke-width="0"/>
<g id="SVGRepo_tracerCarrier" stroke-linecap="round" stroke-linejoin="round"/>
<g id="SVGRepo_iconCarrier"> <path style="fill:#3df0ab;" d="M166.273,470.296l-2.12,0.112c-30.016,1.544-58.36-13.872-73.384-39.896L19.737,307.48 c-15.024-26.024-14.2-58.28,2.144-83.504l1.152-1.784c6.88-10.616,16.184-19.456,27.136-25.784l19.144-11.056 c7.656-4.416,17.44-1.8,21.856,5.856l24,41.568c4.416,7.656,1.8,17.44-5.856,21.856l-6.928,4 c-15.304,8.84-20.552,28.408-11.712,43.712l40,69.28c8.84,15.304,28.408,20.552,43.712,11.712l6.928-4 c7.656-4.416,17.44-1.8,21.856,5.856l24,41.568c4.416,7.656,1.8,17.44-5.856,21.856l-19.144,11.056 C191.209,466.008,178.913,469.648,166.273,470.296z"/> <g> <path style="fill:#5E9DCD;" d="M146.921,388.424c8.84,15.304,28.408,20.552,43.712,11.712l6.928-4 c3.432-1.976,7.272-2.472,10.88-1.808l-5.264-9.12c-4.416-7.656-14.2-10.272-21.856-5.856l-6.928,4 c-9.464,5.464-20.552,5.52-29.728,1.16L146.921,388.424z"/> <path style="fill:#5E9DCD;" d="M107.009,447.296L35.977,324.264c-15.032-26.024-14.2-58.28,2.144-83.496l1.152-1.784 c6.88-10.616,16.184-19.456,27.136-25.784l19.152-11.056c3.432-1.976,7.272-2.472,10.88-1.808l-5.264-9.12 c-4.416-7.656-14.2-10.272-21.856-5.856l-19.144,11.056c-10.96,6.328-20.256,15.16-27.136,25.784l-1.152,1.784 c-16.344,25.224-17.168,57.472-2.144,83.504L90.777,430.52c5.376,9.312,12.512,17.2,20.768,23.504 C109.961,451.832,108.369,449.664,107.009,447.296z"/> </g> <path style="fill:#FCB641;" d="M453.561,8h-280c-8.84,0-16,7.16-16,16v152c0,8.84,7.16,16,16,16h32v34.256 c0,20.4,22.928,32.096,38.544,18.968L307.209,192h146.352c8.84,0,16-7.16,16-16V24C469.561,15.16,462.401,8,453.561,8z"/> <path style="fill:#FDC567;" d="M469.561,20c0-6.624-5.376-12-12-12h-288c-6.624,0-12,5.376-12,12l0,0c0,6.624,5.376,12,12,12h288 C464.185,32,469.561,26.624,469.561,20L469.561,20z"/> <g> <path style="fill:#132C47;" d="M210.097,381.2c-6.616-11.456-21.328-15.408-32.784-8.792l-6.936,4 c-5.544,3.216-12.024,4.048-18.208,2.408c-6.192-1.664-11.368-5.632-14.568-11.184l-40-69.28c-3.2-5.552-4.056-12.016-2.4-18.208 c1.664-6.184,5.632-11.368,11.184-14.568l6.936-4c11.456-6.624,15.392-21.328,8.784-32.792l-24-41.568 c-3.2-5.552-8.376-9.52-14.568-11.176c-6.184-1.656-12.664-0.808-18.208,2.4l-19.152,11.056c-12,6.928-22.32,16.736-29.856,28.368 l-1.16,1.76c-18.064,27.88-18.968,63.08-2.36,91.848l71.032,123.032c15.84,27.44,44.704,44.008,76.128,44.008 c1.52,0,3.056-0.04,4.592-0.12l2.12-0.112c13.832-0.712,27.48-4.752,39.488-11.672l19.152-11.056 c11.456-6.624,15.392-21.328,8.784-32.792L210.097,381.2z M217.321,441.704l-19.144,11.056c-9.824,5.664-21,8.968-32.312,9.544 l-2.12,0.112c-27.208,1.56-52.456-12.368-66.04-35.904L26.665,303.48c-13.592-23.544-12.856-52.336,1.936-75.16l1.144-1.776 c6.168-9.512,14.616-17.536,24.432-23.2l19.152-11.056c1.232-0.72,2.6-1.08,3.984-1.08c0.696,0,1.392,0.096,2.08,0.272 c2.064,0.552,3.792,1.872,4.856,3.728l24,41.568c2.208,3.824,0.888,8.728-2.928,10.928l-6.928,4 c-9.256,5.344-15.872,13.968-18.64,24.288s-1.344,21.104,4,30.352l40,69.28c5.344,9.248,13.968,15.872,24.288,18.64 c10.312,2.76,21.104,1.352,30.352-4l6.928-4c3.84-2.2,8.72-0.88,10.928,2.928l24,41.568 C222.449,434.592,221.137,439.504,217.321,441.704z"/> <ellipse style="fill:#132C47;" cx="187.455" cy="421.953" rx="8" ry="8"/> <ellipse style="fill:#132C47;" cx="155.777" cy="431.049" rx="8" ry="8"/> <ellipse style="fill:#132C47;" cx="75.459" cy="227.996" rx="8" ry="8"/> <ellipse style="fill:#132C47;" cx="51.741" cy="250.924" rx="8" ry="8"/> <path style="fill:#132C47;" d="M453.561,0h-280c-13.232,0-24,10.768-24,24v152c0,13.232,10.768,24,24,24h24v26.256 c0,12.896,7.136,24.24,18.616,29.584c4.192,1.952,8.64,2.912,13.04,2.912c7.152,0,14.216-2.52,20.032-7.416L310.129,200h143.432 c13.232,0,24-10.768,24-24V24C477.561,10.768,466.793,0,453.561,0z M461.561,176c0,4.416-3.592,8-8,8H307.209 c-1.888,0-3.712,0.664-5.16,1.88l-63.104,53.216c-6.688,5.632-13.432,3.44-16.016,2.24c-4.528-2.104-9.368-7.168-9.368-15.08V192 c0-4.424-3.584-8-8-8h-32c-4.408,0-8-3.584-8-8V24c0-4.416,3.592-8,8-8h280c4.408,0,8,3.584,8,8V176z"/> <path style="fill:#132C47;" d="M438.313,220.688c-5.52,0.64-10.048,5.528-9.744,10.88c0.272,5.36,5.144,9.744,10.864,9.8 s10.128-4.824,9.824-10.888C448.913,224.408,444.153,220.008,438.313,220.688z"/> <path style="fill:#132C47;" d="M438.505,259.728c-5.552-0.464-10.816,3.448-11.656,8.744c-0.808,5.296,3.088,10.56,8.688,11.752 s10.896-2.712,11.808-8.728C448.289,265.488,444.361,260.224,438.505,259.728z"/> <path style="fill:#132C47;" d="M430.409,299.96c-5.472-1.672-11.416,1.048-13.256,6.08c-1.728,5.08,0.808,10.976,5.912,13.272 c5.328,2.392,11.496-0.232,13.48-5.984C438.641,307.616,435.881,301.624,430.409,299.96z"/> <path style="fill:#132C47;" d="M413.865,337.504c-5-2.784-11.312-1.336-14.088,3.248c-2.592,4.712-1.872,10.664,2.856,14.136 c4.488,3.312,11.584,2.392,14.568-2.928C420.361,346.768,418.865,340.288,413.865,337.504z"/> <path style="fill:#132C47;" d="M375.537,371.112c-3.904,3.672-4.096,10.016-0.28,14.312c3.776,4.264,10.568,4.472,14.976,0.296 c4.096-4.488,3.92-11.2-0.376-14.968C385.545,366.984,379.129,367.136,375.537,371.112z"/> <path style="fill:#132C47;" d="M345.337,395.568c-4.584,2.776-6.008,9.08-3.192,14.056s9.32,6.464,14.512,3.296 c5.224-3.12,6.152-10.152,2.808-14.624C355.969,393.592,349.961,392.848,345.337,395.568z"/> <path style="fill:#132C47;" d="M312.505,412.488c-5.032,1.832-7.68,7.752-5.92,13.192c1.76,5.44,7.824,8.176,13.528,6.072 c5.792-1.904,8.088-8.64,5.704-13.712C323.337,412.752,317.625,410.856,312.505,412.488z"/> <path style="fill:#132C47;" d="M275.081,422.76c-5.296,0.808-9.128,6.088-8.56,11.784c0.568,5.688,5.912,9.576,11.92,8.656 c6.04-0.784,9.808-6.376,8.504-12.064C285.689,425.68,280.409,422.096,275.081,422.76z"/> <path style="fill:#132C47;" d="M221.561,40h-32c-4.416,0-8,3.576-8,8s3.584,8,8,8h32c4.408,0,8,3.584,8,8v16c0,4.416-3.592,8-8,8 h-16c-13.232,0-24,10.768-24,24v16c0,13.232,10.768,24,24,24h32c4.416,0,8-3.576,8-8s-3.584-8-8-8h-32c-4.408,0-8-3.584-8-8v-16 c0-4.416,3.592-8,8-8h16c13.232,0,24-10.768,24-24V64C245.561,50.768,234.793,40,221.561,40z"/> <path style="fill:#132C47;" d="M317.561,40c-4.416,0-8,3.576-8,8v40h-24c-4.408,0-8-3.584-8-8V48c0-4.424-3.584-8-8-8s-8,3.576-8,8 v32c0,13.232,10.768,24,24,24h24v40c0,4.424,3.584,8,8,8s8-3.576,8-8V48C325.561,43.576,321.977,40,317.561,40z"/> <path style="fill:#132C47;" d="M373.561,96h-16V48c0-4.424-3.584-8-8-8s-8,3.576-8,8v96c0,4.424,3.584,8,8,8s8-3.576,8-8v-32h16 c4.408,0,8,3.584,8,8v24c0,4.424,3.584,8,8,8s8-3.576,8-8v-24C397.561,106.768,386.793,96,373.561,96z"/> <path style="fill:#132C47;" d="M431.905,98.344l-2.896,2.896c-1.136-3.048-4.008-5.24-7.448-5.24c-4.416,0-8,3.576-8,8v40 c0,4.424,3.584,8,8,8s8-3.576,8-8v-20.688l13.656-13.656c3.128-3.128,3.128-8.184,0-11.312S435.033,95.216,431.905,98.344z"/> </g> </g>
</svg>